<?xml version="1.0" encoding="utf-8"?>
<!-- Generator: Adobe Illustrator 28.1.0, SVG Export Plug-In . SVG Version: 6.00 Build 0)  -->
<svg version="1.1" id="Layer_1" xmlns="http://www.w3.org/2000/svg" xmlns:xlink="http://www.w3.org/1999/xlink" x="0px" y="0px"
	 viewBox="0 0 200 200" style="enable-background:new 0 0 200 200;" xml:space="preserve">
<style type="text/css">
	.st0{fill:#FFFFFF;}
</style>
<g>
	<g>
		<path class="st0" d="M197.8,86.2c0,0.7,0,2.6-23.7,86l-0.2,0.8c0,0.1,0,0.2-0.1,0.4c-3.7,11.6-14.2,18.5-28.1,18.5
			c-15.8,0-28.2-8.5-28.2-19.4c0-10.8,12.4-19.3,28.2-19.3c4.5,0,8.8,0.7,12.6,2l12.2-40.7l-57.5-8.3l-13.5,42.2c0,0.1,0,0.1,0,0.2
			c-3.4,11.8-13.6,18.6-28.1,18.6c-15.8,0-28.2-8.5-28.2-19.4s12.4-19.4,28.2-19.4c4.9,0,9.6,0.8,13.7,2.4
			c6.1-23.6,14.5-56.8,14.8-59.5c0-1.1,0.9-2.6,2.8-2.9c0.4-0.1,0.9-0.1,1.6-0.1c6.4,0,30.5,3.5,50.2,6.7
			C197.8,82,197.8,83.2,197.8,86.2z"/>
	</g>
</g>
<g>
	<g>
		<path class="st0" d="M36.6,25.9c0,0.1,0.1,0.4,0.2,0.7C36.7,26.4,36.7,26.1,36.6,25.9z"/>
		<path class="st0" d="M90,15.3v31.4c0,1.4-1,2.6-2.4,2.9L55,56.1l1.4,44.3c0,0.1,0,0.1,0,0.2c0.8,12.2-6.6,22.1-20.3,26.9
			c-4.5,1.6-9,2.4-13.1,2.4c-9.6,0-17.4-4.1-20-11.2C-0.6,108.5,8.2,96.3,23.1,91c4.6-1.6,9.3-2.4,13.8-2.3c-2.2-24.3-5.4-58.4-6-61
			c-0.3-0.8-0.1-1.6,0.3-2.4c0.7-1.1,2-3.4,55.3-12.9c0.9-0.2,1.8,0.1,2.4,0.6C89.6,13.6,90,14.5,90,15.3z"/>
	</g>
</g>
</svg>
